<svg xmlns="http://www.w3.org/2000/svg" viewBox="0 0 24 24" width="24" height="24">
  <path fill="#000000" d="M12 0C5.37 0 0 5.37 0 12c0 5.3 3.44 9.8 8.21 11.39.6.11.82-.26.82-.58 0-.29-.01-1.05-.02-2.06-3.34.73-4.04-1.61-4.04-1.61-.55-1.4-1.35-1.78-1.35-1.78-1.1-.75.08-.74.08-.74 1.22.08 1.86 1.26 1.86 1.26 1.08 1.86 2.83 1.32 3.52 1.01.11-.78.42-1.32.76-1.63-2.67-.3-5.48-1.33-5.48-5.93 0-1.31.47-2.38 1.24-3.23-.13-.3-.54-1.52.12-3.16 0 0 1.01-.32 3.3 1.23a11.5 11.5 0 013.01-.4c1.02.01 2.05.14 3.01.41 2.29-1.55 3.3-1.23 3.3-1.23.66 1.64.25 2.86.12 3.16.77.85 1.24 1.92 1.24 3.23 0 4.61-2.81 5.62-5.49 5.92.43.37.81 1.1.81 2.22 0 1.6-.01 2.89-.01 3.29 0 .32.22.69.83.58A12.03 12.03 0 0024 12c0-6.63-5.37-12-12-12z"/>
</svg>
