<svg xmlns="http://www.w3.org/2000/svg" viewBox="0 0 24 24" width="24" height="24">
  <path fill="#0A66C2" d="M22.23 0H1.77A1.77 1.77 0 000 1.77v20.46A1.77 1.77 0 001.77 24h20.46A1.77 1.77 0 0024 22.23V1.77A1.77 1.77 0 0022.23 0zM7.12 20.45H3.56V9H7.12v11.45zM5.34 7.77a2.07 2.07 0 01-2.07-2.08A2.08 2.08 0 015.34 3.6a2.07 2.07 0 012.07 2.08 2.07 2.07 0 01-2.07 2.08zm15.11 12.68h-3.56v-5.6c0-1.33-.03-3.03-1.85-3.03-1.86 0-2.14 1.45-2.14 2.93v5.7H9.36V9h3.41v1.56h.05c.48-.92 1.65-1.88 3.39-1.88 3.63 0 4.3 2.38 4.3 5.47v6.3z"/>
</svg>
